<svg width="226" height="84" viewBox="0 0 226 84" fill="none" xmlns="http://www.w3.org/2000/svg">
<g filter="url(#filter0_d_22618_497)">
<path fill-rule="evenodd" clip-rule="evenodd" d="M22 22C22 16.4772 26.4772 12 32 12H194C199.523 12 204 16.4772 204 22V42C204 47.5228 199.523 52 194 52H32C26.4772 52 22 47.5228 22 42V22Z" fill="white"/>
</g>
<path d="M57.7637 33.8027C57.7637 33.4277 57.6309 33.1387 57.3652 32.9355C57.1035 32.7324 56.6289 32.5273 55.9414 32.3203C55.2539 32.1133 54.707 31.8828 54.3008 31.6289C53.5234 31.1406 53.1348 30.5039 53.1348 29.7188C53.1348 29.0312 53.4141 28.4648 53.9727 28.0195C54.5352 27.5742 55.2637 27.3516 56.1582 27.3516C56.752 27.3516 57.2812 27.4609 57.7461 27.6797C58.2109 27.8984 58.5762 28.2109 58.8418 28.6172C59.1074 29.0195 59.2402 29.4668 59.2402 29.959H57.7637C57.7637 29.5137 57.623 29.166 57.3418 28.916C57.0645 28.6621 56.666 28.5352 56.1465 28.5352C55.6621 28.5352 55.2852 28.6387 55.0156 28.8457C54.75 29.0527 54.6172 29.3418 54.6172 29.7129C54.6172 30.0254 54.7617 30.2871 55.0508 30.498C55.3398 30.7051 55.8164 30.9082 56.4805 31.1074C57.1445 31.3027 57.6777 31.5273 58.0801 31.7812C58.4824 32.0312 58.7773 32.3203 58.9648 32.6484C59.1523 32.9727 59.2461 33.3535 59.2461 33.791C59.2461 34.502 58.9727 35.0684 58.4258 35.4902C57.8828 35.9082 57.1445 36.1172 56.2109 36.1172C55.5938 36.1172 55.0254 36.0039 54.5059 35.7773C53.9902 35.5469 53.5879 35.2305 53.2988 34.8281C53.0137 34.4258 52.8711 33.957 52.8711 33.4219H54.3535C54.3535 33.9062 54.5137 34.2812 54.834 34.5469C55.1543 34.8125 55.6133 34.9453 56.2109 34.9453C56.7266 34.9453 57.1133 34.8418 57.3711 34.6348C57.6328 34.4238 57.7637 34.1465 57.7637 33.8027ZM61.9238 36H60.5V29.6602H61.9238V36ZM60.4121 28.0137C60.4121 27.7949 60.4805 27.6133 60.6172 27.4688C60.7578 27.3242 60.957 27.252 61.2148 27.252C61.4727 27.252 61.6719 27.3242 61.8125 27.4688C61.9531 27.6133 62.0234 27.7949 62.0234 28.0137C62.0234 28.2285 61.9531 28.4082 61.8125 28.5527C61.6719 28.6934 61.4727 28.7637 61.2148 28.7637C60.957 28.7637 60.7578 28.6934 60.6172 28.5527C60.4805 28.4082 60.4121 28.2285 60.4121 28.0137ZM63.2305 32.7832C63.2305 31.7988 63.4609 31.0137 63.9219 30.4277C64.3867 29.8379 65.002 29.543 65.7676 29.543C66.4902 29.543 67.0586 29.7949 67.4727 30.2988L67.5371 29.6602H68.8203V35.8066C68.8203 36.6387 68.5605 37.2949 68.041 37.7754C67.5254 38.2559 66.8281 38.4961 65.9492 38.4961C65.4844 38.4961 65.0293 38.3984 64.584 38.2031C64.1426 38.0117 63.8066 37.7598 63.5762 37.4473L64.25 36.5918C64.6875 37.1113 65.2266 37.3711 65.8672 37.3711C66.3398 37.3711 66.7129 37.2422 66.9863 36.9844C67.2598 36.7305 67.3965 36.3555 67.3965 35.8594V35.4316C66.9863 35.8887 66.4395 36.1172 65.7559 36.1172C65.0137 36.1172 64.4062 35.8223 63.9336 35.2324C63.4648 34.6426 63.2305 33.8262 63.2305 32.7832ZM64.6484 32.9062C64.6484 33.543 64.7773 34.0449 65.0352 34.4121C65.2969 34.7754 65.6582 34.957 66.1191 34.957C66.6934 34.957 67.1191 34.7109 67.3965 34.2188V31.4297C67.127 30.9492 66.7051 30.709 66.1309 30.709C65.6621 30.709 65.2969 30.8945 65.0352 31.2656C64.7773 31.6367 64.6484 32.1836 64.6484 32.9062ZM71.6094 29.6602L71.6504 30.3926C72.1191 29.8262 72.7344 29.543 73.4961 29.543C74.8164 29.543 75.4883 30.2988 75.5117 31.8105V36H74.0879V31.8926C74.0879 31.4902 74 31.1934 73.8242 31.002C73.6523 30.8066 73.3691 30.709 72.9746 30.709C72.4004 30.709 71.9727 30.9688 71.6914 31.4883V36H70.2676V29.6602H71.6094ZM81.4707 36H80.0469V29.6602H81.4707V36ZM79.959 28.0137C79.959 27.7949 80.0273 27.6133 80.1641 27.4688C80.3047 27.3242 80.5039 27.252 80.7617 27.252C81.0195 27.252 81.2188 27.3242 81.3594 27.4688C81.5 27.6133 81.5703 27.7949 81.5703 28.0137C81.5703 28.2285 81.5 28.4082 81.3594 28.5527C81.2188 28.6934 81.0195 28.7637 80.7617 28.7637C80.5039 28.7637 80.3047 28.6934 80.1641 28.5527C80.0273 28.4082 79.959 28.2285 79.959 28.0137ZM84.3477 29.6602L84.3887 30.3926C84.8574 29.8262 85.4727 29.543 86.2344 29.543C87.5547 29.543 88.2266 30.2988 88.25 31.8105V36H86.8262V31.8926C86.8262 31.4902 86.7383 31.1934 86.5625 31.002C86.3906 30.8066 86.1074 30.709 85.7129 30.709C85.1387 30.709 84.7109 30.9688 84.4297 31.4883V36H83.0059V29.6602H84.3477ZM94.4785 28.1191V29.6602H95.5977V30.7148H94.4785V34.2539C94.4785 34.4961 94.5254 34.6719 94.6191 34.7812C94.7168 34.8867 94.8887 34.9395 95.1348 34.9395C95.2988 34.9395 95.4648 34.9199 95.6328 34.8809V35.9824C95.3086 36.0723 94.9961 36.1172 94.6953 36.1172C93.6016 36.1172 93.0547 35.5137 93.0547 34.3066V30.7148H92.0117V29.6602H93.0547V28.1191H94.4785ZM96.248 32.7715C96.248 32.1504 96.3711 31.5918 96.6172 31.0957C96.8633 30.5957 97.209 30.2129 97.6543 29.9473C98.0996 29.6777 98.6113 29.543 99.1895 29.543C100.045 29.543 100.738 29.8184 101.27 30.3691C101.805 30.9199 102.094 31.6504 102.137 32.5605L102.143 32.8945C102.143 33.5195 102.021 34.0781 101.779 34.5703C101.541 35.0625 101.197 35.4434 100.748 35.7129C100.303 35.9824 99.7871 36.1172 99.2012 36.1172C98.3066 36.1172 97.5898 35.8203 97.0508 35.2266C96.5156 34.6289 96.248 33.834 96.248 32.8418V32.7715ZM97.6719 32.8945C97.6719 33.5469 97.8066 34.0586 98.0762 34.4297C98.3457 34.7969 98.7207 34.9805 99.2012 34.9805C99.6816 34.9805 100.055 34.793 100.32 34.418C100.59 34.043 100.725 33.4941 100.725 32.7715C100.725 32.1309 100.586 31.623 100.309 31.248C100.035 30.873 99.6621 30.6855 99.1895 30.6855C98.7246 30.6855 98.3555 30.8711 98.082 31.2422C97.8086 31.6094 97.6719 32.1602 97.6719 32.8945ZM109.889 34.2773C109.889 34.0234 109.783 33.8301 109.572 33.6973C109.365 33.5645 109.02 33.4473 108.535 33.3457C108.051 33.2441 107.646 33.1152 107.322 32.959C106.611 32.6152 106.256 32.1172 106.256 31.4648C106.256 30.918 106.486 30.4609 106.947 30.0938C107.408 29.7266 107.994 29.543 108.705 29.543C109.463 29.543 110.074 29.7305 110.539 30.1055C111.008 30.4805 111.242 30.9668 111.242 31.5645H109.818C109.818 31.291 109.717 31.0645 109.514 30.8848C109.311 30.7012 109.041 30.6094 108.705 30.6094C108.393 30.6094 108.137 30.6816 107.938 30.8262C107.742 30.9707 107.645 31.1641 107.645 31.4062C107.645 31.625 107.736 31.7949 107.92 31.916C108.104 32.0371 108.475 32.1602 109.033 32.2852C109.592 32.4062 110.029 32.5527 110.346 32.7246C110.666 32.8926 110.902 33.0957 111.055 33.334C111.211 33.5723 111.289 33.8613 111.289 34.2012C111.289 34.7715 111.053 35.2344 110.58 35.5898C110.107 35.9414 109.488 36.1172 108.723 36.1172C108.203 36.1172 107.74 36.0234 107.334 35.8359C106.928 35.6484 106.611 35.3906 106.385 35.0625C106.158 34.7344 106.045 34.3809 106.045 34.002H107.428C107.447 34.3379 107.574 34.5977 107.809 34.7812C108.043 34.9609 108.354 35.0508 108.74 35.0508C109.115 35.0508 109.4 34.9805 109.596 34.8398C109.791 34.6953 109.889 34.5078 109.889 34.2773ZM116.322 36C116.26 35.8789 116.205 35.6816 116.158 35.4082C115.705 35.8809 115.15 36.1172 114.494 36.1172C113.857 36.1172 113.338 35.9355 112.936 35.5723C112.533 35.209 112.332 34.7598 112.332 34.2246C112.332 33.5488 112.582 33.0312 113.082 32.6719C113.586 32.3086 114.305 32.127 115.238 32.127H116.111V31.7109C116.111 31.3828 116.02 31.1211 115.836 30.9258C115.652 30.7266 115.373 30.627 114.998 30.627C114.674 30.627 114.408 30.709 114.201 30.873C113.994 31.0332 113.891 31.2383 113.891 31.4883H112.467C112.467 31.1406 112.582 30.8164 112.812 30.5156C113.043 30.2109 113.355 29.9727 113.75 29.8008C114.148 29.6289 114.592 29.543 115.08 29.543C115.822 29.543 116.414 29.7305 116.855 30.1055C117.297 30.4766 117.523 31 117.535 31.6758V34.5352C117.535 35.1055 117.615 35.5605 117.775 35.9004V36H116.322ZM114.758 34.9746C115.039 34.9746 115.303 34.9062 115.549 34.7695C115.799 34.6328 115.986 34.4492 116.111 34.2188V33.0234H115.344C114.816 33.0234 114.42 33.1152 114.154 33.2988C113.889 33.4824 113.756 33.7422 113.756 34.0781C113.756 34.3516 113.846 34.5703 114.025 34.7344C114.209 34.8945 114.453 34.9746 114.758 34.9746ZM121.168 34.1953L122.51 29.6602H123.98L121.783 36H120.547L118.332 29.6602H119.809L121.168 34.1953ZM127.584 36.1172C126.682 36.1172 125.949 35.834 125.387 35.2676C124.828 34.6973 124.549 33.9395 124.549 32.9941V32.8184C124.549 32.1855 124.67 31.6211 124.912 31.125C125.158 30.625 125.502 30.2363 125.943 29.959C126.385 29.6816 126.877 29.543 127.42 29.543C128.283 29.543 128.949 29.8184 129.418 30.3691C129.891 30.9199 130.127 31.6992 130.127 32.707V33.2812H125.984C126.027 33.8047 126.201 34.2188 126.506 34.5234C126.814 34.8281 127.201 34.9805 127.666 34.9805C128.318 34.9805 128.85 34.7168 129.26 34.1895L130.027 34.9219C129.773 35.3008 129.434 35.5957 129.008 35.8066C128.586 36.0137 128.111 36.1172 127.584 36.1172ZM127.414 30.6855C127.023 30.6855 126.707 30.8223 126.465 31.0957C126.227 31.3691 126.074 31.75 126.008 32.2383H128.721V32.1328C128.689 31.6562 128.562 31.2969 128.34 31.0547C128.117 30.8086 127.809 30.6855 127.414 30.6855ZM138.014 36C137.951 35.8789 137.896 35.6816 137.85 35.4082C137.396 35.8809 136.842 36.1172 136.186 36.1172C135.549 36.1172 135.029 35.9355 134.627 35.5723C134.225 35.209 134.023 34.7598 134.023 34.2246C134.023 33.5488 134.273 33.0312 134.773 32.6719C135.277 32.3086 135.996 32.127 136.93 32.127H137.803V31.7109C137.803 31.3828 137.711 31.1211 137.527 30.9258C137.344 30.7266 137.064 30.627 136.689 30.627C136.365 30.627 136.1 30.709 135.893 30.873C135.686 31.0332 135.582 31.2383 135.582 31.4883H134.158C134.158 31.1406 134.273 30.8164 134.504 30.5156C134.734 30.2109 135.047 29.9727 135.441 29.8008C135.84 29.6289 136.283 29.543 136.771 29.543C137.514 29.543 138.105 29.7305 138.547 30.1055C138.988 30.4766 139.215 31 139.227 31.6758V34.5352C139.227 35.1055 139.307 35.5605 139.467 35.9004V36H138.014ZM136.449 34.9746C136.73 34.9746 136.994 34.9062 137.24 34.7695C137.49 34.6328 137.678 34.4492 137.803 34.2188V33.0234H137.035C136.508 33.0234 136.111 33.1152 135.846 33.2988C135.58 33.4824 135.447 33.7422 135.447 34.0781C135.447 34.3516 135.537 34.5703 135.717 34.7344C135.9 34.8945 136.145 34.9746 136.449 34.9746ZM144.037 30.9609C143.85 30.9297 143.656 30.9141 143.457 30.9141C142.805 30.9141 142.365 31.1641 142.139 31.6641V36H140.715V29.6602H142.074L142.109 30.3691C142.453 29.8184 142.93 29.543 143.539 29.543C143.742 29.543 143.91 29.5703 144.043 29.625L144.037 30.9609ZM147.014 28.1191V29.6602H148.133V30.7148H147.014V34.2539C147.014 34.4961 147.061 34.6719 147.154 34.7812C147.252 34.8867 147.424 34.9395 147.67 34.9395C147.834 34.9395 148 34.9199 148.168 34.8809V35.9824C147.844 36.0723 147.531 36.1172 147.23 36.1172C146.137 36.1172 145.59 35.5137 145.59 34.3066V30.7148H144.547V29.6602H145.59V28.1191H147.014ZM150.74 36H149.316V29.6602H150.74V36ZM149.229 28.0137C149.229 27.7949 149.297 27.6133 149.434 27.4688C149.574 27.3242 149.773 27.252 150.031 27.252C150.289 27.252 150.488 27.3242 150.629 27.4688C150.77 27.6133 150.84 27.7949 150.84 28.0137C150.84 28.2285 150.77 28.4082 150.629 28.5527C150.488 28.6934 150.289 28.7637 150.031 28.7637C149.773 28.7637 149.574 28.6934 149.434 28.5527C149.297 28.4082 149.229 28.2285 149.229 28.0137ZM154.9 34.9805C155.256 34.9805 155.551 34.877 155.785 34.6699C156.02 34.4629 156.145 34.207 156.16 33.9023H157.502C157.486 34.2969 157.363 34.666 157.133 35.0098C156.902 35.3496 156.59 35.6191 156.195 35.8184C155.801 36.0176 155.375 36.1172 154.918 36.1172C154.031 36.1172 153.328 35.8301 152.809 35.2559C152.289 34.6816 152.029 33.8887 152.029 32.877V32.7305C152.029 31.7656 152.287 30.9941 152.803 30.416C153.318 29.834 154.021 29.543 154.912 29.543C155.666 29.543 156.279 29.7637 156.752 30.2051C157.229 30.6426 157.479 31.2188 157.502 31.9336H156.16C156.145 31.5703 156.02 31.2715 155.785 31.0371C155.555 30.8027 155.26 30.6855 154.9 30.6855C154.439 30.6855 154.084 30.8535 153.834 31.1895C153.584 31.5215 153.457 32.0273 153.453 32.707V32.9355C153.453 33.623 153.576 34.1367 153.822 34.4766C154.072 34.8125 154.432 34.9805 154.9 34.9805ZM160.092 36H158.668V27H160.092V36ZM164.439 36.1172C163.537 36.1172 162.805 35.834 162.242 35.2676C161.684 34.6973 161.404 33.9395 161.404 32.9941V32.8184C161.404 32.1855 161.525 31.6211 161.768 31.125C162.014 30.625 162.357 30.2363 162.799 29.959C163.24 29.6816 163.732 29.543 164.275 29.543C165.139 29.543 165.805 29.8184 166.273 30.3691C166.746 30.9199 166.982 31.6992 166.982 32.707V33.2812H162.84C162.883 33.8047 163.057 34.2188 163.361 34.5234C163.67 34.8281 164.057 34.9805 164.521 34.9805C165.174 34.9805 165.705 34.7168 166.115 34.1895L166.883 34.9219C166.629 35.3008 166.289 35.5957 165.863 35.8066C165.441 36.0137 164.967 36.1172 164.439 36.1172ZM164.27 30.6855C163.879 30.6855 163.562 30.8223 163.32 31.0957C163.082 31.3691 162.93 31.75 162.863 32.2383H165.576V32.1328C165.545 31.6562 165.418 31.2969 165.195 31.0547C164.973 30.8086 164.664 30.6855 164.27 30.6855ZM171.646 34.2773C171.646 34.0234 171.541 33.8301 171.33 33.6973C171.123 33.5645 170.777 33.4473 170.293 33.3457C169.809 33.2441 169.404 33.1152 169.08 32.959C168.369 32.6152 168.014 32.1172 168.014 31.4648C168.014 30.918 168.244 30.4609 168.705 30.0938C169.166 29.7266 169.752 29.543 170.463 29.543C171.221 29.543 171.832 29.7305 172.297 30.1055C172.766 30.4805 173 30.9668 173 31.5645H171.576C171.576 31.291 171.475 31.0645 171.271 30.8848C171.068 30.7012 170.799 30.6094 170.463 30.6094C170.15 30.6094 169.895 30.6816 169.695 30.8262C169.5 30.9707 169.402 31.1641 169.402 31.4062C169.402 31.625 169.494 31.7949 169.678 31.916C169.861 32.0371 170.232 32.1602 170.791 32.2852C171.35 32.4062 171.787 32.5527 172.104 32.7246C172.424 32.8926 172.66 33.0957 172.812 33.334C172.969 33.5723 173.047 33.8613 173.047 34.2012C173.047 34.7715 172.811 35.2344 172.338 35.5898C171.865 35.9414 171.246 36.1172 170.48 36.1172C169.961 36.1172 169.498 36.0234 169.092 35.8359C168.686 35.6484 168.369 35.3906 168.143 35.0625C167.916 34.7344 167.803 34.3809 167.803 34.002H169.186C169.205 34.3379 169.332 34.5977 169.566 34.7812C169.801 34.9609 170.111 35.0508 170.498 35.0508C170.873 35.0508 171.158 34.9805 171.354 34.8398C171.549 34.6953 171.646 34.5078 171.646 34.2773Z" fill="black"/>
<defs>
<filter id="filter0_d_22618_497" x="0" y="0" width="226" height="84" filterUnits="userSpaceOnUse" color-interpolation-filters="sRGB">
<feFlood flood-opacity="0" result="BackgroundImageFix"/>
<feColorMatrix in="SourceAlpha" type="matrix" values="0 0 0 0 0 0 0 0 0 0 0 0 0 0 0 0 0 0 127 0" result="hardAlpha"/>
<feOffset dy="10"/>
<feGaussianBlur stdDeviation="11"/>
<feColorMatrix type="matrix" values="0 0 0 0 0.231373 0 0 0 0 0.290196 0 0 0 0 0.454902 0 0 0 0.1 0"/>
<feBlend mode="normal" in2="BackgroundImageFix" result="effect1_dropShadow_22618_497"/>
<feBlend mode="normal" in="SourceGraphic" in2="effect1_dropShadow_22618_497" result="shape"/>
</filter>
</defs>
</svg>
